# xmcd
#
# Track frame offsets: 
#        183
#        13323
#        30283
#
# Disc length: 624 seconds
#
# Revision: 1
# Processed by: cddbd v1.5.2PL0 Copyright (c) Steve Scherf et al.
# Submitted via: ExactAudioCopy v0.95b4
#
DISCID=18026e03
DTITLE=Brooks, Garth - She's Every Woman
DYEAR=1995
DGENRE=Country
TTITLE0=She's Every Woman
TTITLE1=The Red Strokes
TTITLE2=The Dance
EXTD=Single
EXTT0=Single
EXTT1=Single
EXTT2=Single
PLAYORDER=
